<svg xmlns="http://www.w3.org/2000/svg" viewBox="0 0 512 512" width="512" height="512">
  <defs>
    <linearGradient id="bgGrad" x1="0%" y1="0%" x2="100%" y2="100%">
      <stop offset="0%" stop-color="#1a365d"/>
      <stop offset="100%" stop-color="#22c55e"/>
    </linearGradient>
  </defs>

  <!-- Background circle -->
  <circle cx="256" cy="256" r="248" fill="#1a365d"/>

  <!-- Inner subtle ring -->
  <circle cx="256" cy="256" r="230" fill="none" stroke="#22c55e" stroke-width="2" opacity="0.3"/>

  <!-- Handshake: Left hand (deep blue, lighter shade) -->
  <path d="
    M 140 280
    C 140 260, 160 240, 180 240
    L 200 240
    C 210 240, 220 245, 230 255
    L 250 280
    C 255 285, 260 288, 265 288
    L 270 288
    C 272 288, 274 286, 274 284
    L 274 280
    C 274 275, 272 270, 268 266
    L 248 242
    C 244 237, 240 230, 240 224
    L 240 195
    C 240 185, 248 178, 258 178
    C 268 178, 275 186, 275 196
    L 275 215
    C 275 220, 278 224, 282 226
    L 300 234
    C 310 238, 316 248, 316 258
    L 316 275
    C 316 285, 312 294, 304 300
    L 290 312
    C 284 316, 278 318, 270 318
    L 240 318
    C 228 318, 218 312, 212 302
    L 155 285
    C 147 281, 140 272, 140 280
    Z
  " fill="#2d4a7a" opacity="0.9"/>

  <!-- Handshake: Right hand (green) overlapping -->
  <path d="
    M 372 280
    C 372 260, 352 240, 332 240
    L 312 240
    C 302 240, 292 245, 282 255
    L 262 280
    C 257 285, 252 288, 247 288
    L 242 288
    C 240 288, 238 286, 238 284
    L 238 280
    C 238 275, 240 270, 244 266
    L 264 242
    C 268 237, 272 230, 272 224
    L 272 195
    C 272 185, 264 178, 254 178
    C 244 178, 237 186, 237 196
    L 237 215
    C 237 220, 234 224, 230 226
    L 212 234
    C 202 238, 196 248, 196 258
    L 196 275
    C 196 285, 200 294, 208 300
    L 222 312
    C 228 316, 234 318, 242 318
    L 272 318
    C 284 318, 294 312, 300 302
    L 357 285
    C 365 281, 372 272, 372 280
    Z
  " fill="#22c55e" opacity="0.85"/>

  <!-- Checkmark -->
  <path d="
    M 220 268
    L 248 296
    L 300 236
  " fill="none" stroke="white" stroke-width="22" stroke-linecap="round" stroke-linejoin="round"/>

  <!-- Subtle glow ring around checkmark area -->
  <circle cx="256" cy="262" r="60" fill="none" stroke="white" stroke-width="1" opacity="0.15"/>

  <!-- Brand text (optional, can be hidden for icon-only use) -->
  <text x="256" y="395" text-anchor="middle" font-family="system-ui, -apple-system, sans-serif" font-size="48" font-weight="700" fill="white" letter-spacing="2">ProofProcure</text>
</svg>
